<?xml version="1.0" encoding="UTF-8"?>
<svg xmlns="http://www.w3.org/2000/svg" xmlns:xlink="http://www.w3.org/1999/xlink" width="134px" height="42px" viewBox="0 0 134 42" version="1.1">
<g id="surface1">
<path style=" stroke:none;fill-rule:nonzero;fill:rgb(16.470588%,20%,45.882353%);fill-opacity:1;" d="M 49.210938 20.070312 C 49.210938 11.300781 38.308594 4.140625 24.859375 4.140625 C 11.398438 4.148438 0.5 11.300781 0.5 20.070312 C 0.5 20.300781 0.5 20.921875 0.5 21 C 0.5 30.308594 10.03125 37.851562 24.851562 37.851562 C 39.761719 37.851562 49.199219 30.308594 49.199219 21 L 49.199219 20.070312 Z M 49.210938 20.070312 "/>
<path style=" stroke:none;fill-rule:nonzero;fill:rgb(100%,81.960784%,0%);fill-opacity:1;" d="M 48.269531 20.070312 C 48.269531 28.339844 37.789062 35.050781 24.859375 35.050781 C 11.929688 35.050781 1.441406 28.339844 1.441406 20.070312 C 1.441406 11.800781 11.921875 5.089844 24.851562 5.089844 C 37.78125 5.089844 48.269531 11.789062 48.269531 20.070312 "/>
<path style=" stroke:none;fill-rule:nonzero;fill:rgb(100%,100%,100%);fill-opacity:1;" d="M 17.078125 15.339844 C 17.070312 15.359375 16.828125 15.609375 16.988281 15.800781 C 17.359375 16.269531 18.5 16.539062 19.648438 16.28125 C 20.339844 16.128906 21.21875 15.421875 22.070312 14.75 C 22.988281 14.019531 23.910156 13.28125 24.828125 12.988281 C 25.808594 12.679688 26.429688 12.808594 26.851562 12.941406 C 27.300781 13.078125 27.839844 13.371094 28.691406 14.011719 C 30.289062 15.210938 36.730469 20.839844 37.851562 21.808594 C 38.75 21.410156 42.730469 19.691406 48.140625 18.5 C 47.671875 15.609375 45.910156 12.96875 43.25 10.808594 C 39.539062 12.371094 35 13.179688 30.570312 11.019531 C 30.550781 11.011719 28.148438 9.871094 25.78125 9.929688 C 22.261719 10.011719 20.738281 11.53125 19.121094 13.148438 Z M 17.078125 15.339844 "/>
<path style=" stroke:none;fill-rule:nonzero;fill:rgb(100%,100%,100%);fill-opacity:1;" d="M 37.589844 22.421875 C 37.511719 22.351562 30.019531 15.789062 28.320312 14.511719 C 27.339844 13.769531 26.789062 13.578125 26.21875 13.511719 C 25.921875 13.46875 25.511719 13.53125 25.21875 13.609375 C 24.429688 13.820312 23.398438 14.519531 22.480469 15.238281 C 21.53125 16 20.628906 16.710938 19.800781 16.898438 C 18.738281 17.140625 17.441406 16.859375 16.851562 16.460938 C 16.609375 16.300781 16.441406 16.109375 16.359375 15.921875 C 16.140625 15.410156 16.539062 15.011719 16.609375 14.941406 L 18.679688 12.699219 C 18.921875 12.460938 19.160156 12.21875 19.410156 11.980469 C 18.738281 12.070312 18.121094 12.238281 17.519531 12.398438 C 16.769531 12.609375 16.050781 12.808594 15.320312 12.808594 C 15.019531 12.808594 13.378906 12.539062 13.070312 12.460938 C 11.199219 11.949219 9.550781 11.449219 7.101562 10.300781 C 4.160156 12.488281 2.191406 15.230469 1.621094 18.238281 C 2.039062 18.351562 2.71875 18.550781 3.011719 18.621094 C 9.671875 20.101562 11.738281 21.628906 12.121094 21.941406 C 12.53125 21.488281 13.109375 21.199219 13.769531 21.199219 C 14.511719 21.199219 15.171875 21.570312 15.570312 22.140625 C 15.949219 21.839844 16.480469 21.578125 17.160156 21.578125 C 17.46875 21.578125 17.789062 21.640625 18.109375 21.75 C 18.859375 22.011719 19.25 22.511719 19.449219 22.960938 C 19.699219 22.851562 20.011719 22.761719 20.378906 22.761719 C 20.738281 22.761719 21.109375 22.839844 21.488281 23 C 22.71875 23.53125 22.910156 24.730469 22.800781 25.640625 C 22.890625 25.628906 22.980469 25.628906 23.070312 25.628906 C 24.53125 25.628906 25.710938 26.808594 25.710938 28.269531 C 25.710938 28.71875 25.589844 29.140625 25.390625 29.519531 C 25.789062 29.738281 26.800781 30.25 27.679688 30.128906 C 28.390625 30.039062 28.660156 29.800781 28.75 29.660156 C 28.820312 29.570312 28.890625 29.460938 28.820312 29.378906 L 26.941406 27.289062 C 26.941406 27.289062 26.628906 27 26.730469 26.878906 C 26.839844 26.761719 27.03125 26.929688 27.160156 27.039062 C 28.121094 27.839844 29.28125 29.039062 29.28125 29.039062 C 29.300781 29.050781 29.378906 29.210938 29.808594 29.28125 C 30.179688 29.351562 30.839844 29.308594 31.289062 28.929688 C 31.410156 28.839844 31.519531 28.71875 31.621094 28.601562 C 31.609375 28.609375 31.609375 28.609375 31.601562 28.621094 C 32.078125 28.011719 31.550781 27.378906 31.550781 27.378906 L 29.359375 24.921875 C 29.359375 24.921875 29.050781 24.628906 29.148438 24.511719 C 29.25 24.410156 29.449219 24.558594 29.578125 24.679688 C 30.269531 25.261719 31.261719 26.25 32.199219 27.171875 C 32.378906 27.300781 33.210938 27.820312 34.300781 27.101562 C 34.960938 26.660156 35.101562 26.128906 35.078125 25.730469 C 35.03125 25.199219 34.621094 24.820312 34.621094 24.820312 L 31.621094 21.808594 C 31.621094 21.808594 31.300781 21.539062 31.421875 21.398438 C 31.511719 21.28125 31.71875 21.449219 31.851562 21.558594 C 32.800781 22.359375 35.390625 24.730469 35.390625 24.730469 C 35.429688 24.761719 36.320312 25.390625 37.421875 24.691406 C 37.808594 24.441406 38.070312 24.058594 38.089844 23.621094 C 38.128906 22.871094 37.589844 22.421875 37.589844 22.421875 "/>
<path style=" stroke:none;fill-rule:nonzero;fill:rgb(100%,100%,100%);fill-opacity:1;" d="M 23.058594 26.238281 C 22.601562 26.230469 22.089844 26.511719 22.019531 26.46875 C 21.980469 26.449219 22.050781 26.261719 22.089844 26.148438 C 22.128906 26.039062 22.75 24.199219 21.261719 23.558594 C 20.121094 23.070312 19.421875 23.621094 19.179688 23.871094 C 19.121094 23.929688 19.089844 23.929688 19.078125 23.851562 C 19.058594 23.519531 18.910156 22.621094 17.921875 22.320312 C 16.511719 21.890625 15.609375 22.871094 15.378906 23.230469 C 15.28125 22.429688 14.601562 21.800781 13.769531 21.800781 C 12.871094 21.800781 12.140625 22.53125 12.128906 23.429688 C 12.128906 24.328125 12.859375 25.058594 13.761719 25.058594 C 14.199219 25.058594 14.601562 24.890625 14.890625 24.601562 C 14.898438 24.609375 14.898438 24.621094 14.898438 24.660156 C 14.828125 25.058594 14.699219 26.53125 16.238281 27.128906 C 16.859375 27.371094 17.378906 27.191406 17.820312 26.890625 C 17.949219 26.800781 17.96875 26.839844 17.949219 26.960938 C 17.890625 27.339844 17.960938 28.148438 19.101562 28.609375 C 19.960938 28.960938 20.46875 28.601562 20.808594 28.289062 C 20.960938 28.160156 21 28.179688 21 28.378906 C 21.039062 29.46875 21.949219 30.339844 23.050781 30.339844 C 24.191406 30.339844 25.109375 29.421875 25.109375 28.289062 C 25.109375 27.160156 24.191406 26.25 23.058594 26.238281 "/>
<path style=" stroke:none;fill-rule:nonzero;fill:rgb(16.470588%,20%,45.882353%);fill-opacity:1;" d="M 37.878906 21.628906 C 35.570312 19.609375 30.230469 14.96875 28.78125 13.890625 C 27.949219 13.269531 27.390625 12.941406 26.898438 12.789062 C 26.679688 12.71875 26.371094 12.648438 25.96875 12.648438 C 25.601562 12.648438 25.210938 12.71875 24.789062 12.851562 C 23.859375 13.148438 22.921875 13.890625 22.019531 14.601562 L 21.96875 14.640625 C 21.128906 15.308594 20.261719 16 19.609375 16.140625 C 19.320312 16.199219 19.03125 16.238281 18.738281 16.238281 C 18.011719 16.238281 17.339844 16.03125 17.101562 15.710938 C 17.058594 15.660156 17.089844 15.570312 17.179688 15.449219 L 17.191406 15.429688 L 19.21875 13.238281 C 20.808594 11.648438 22.308594 10.148438 25.78125 10.070312 C 25.839844 10.070312 25.898438 10.070312 25.949219 10.070312 C 28.101562 10.070312 30.261719 11.039062 30.5 11.148438 C 32.519531 12.140625 34.601562 12.640625 36.699219 12.640625 C 38.878906 12.640625 41.140625 12.101562 43.511719 11.011719 C 43.25 10.789062 42.96875 10.570312 42.691406 10.359375 C 40.609375 11.261719 38.628906 11.71875 36.710938 11.71875 C 34.761719 11.71875 32.800781 11.25 30.910156 10.320312 C 30.808594 10.269531 28.429688 9.148438 25.960938 9.148438 C 25.898438 9.148438 25.828125 9.148438 25.761719 9.148438 C 22.851562 9.21875 21.21875 10.25 20.109375 11.148438 C 19.039062 11.179688 18.121094 11.429688 17.289062 11.660156 C 16.558594 11.859375 15.921875 12.039062 15.308594 12.039062 C 15.058594 12.039062 14.601562 12.019531 14.558594 12.019531 C 13.851562 12 10.269531 11.121094 7.421875 10.039062 C 7.128906 10.25 6.851562 10.460938 6.578125 10.671875 C 9.550781 11.890625 13.171875 12.828125 14.320312 12.910156 C 14.640625 12.929688 14.980469 12.96875 15.320312 12.96875 C 16.078125 12.96875 16.828125 12.761719 17.558594 12.550781 C 17.988281 12.429688 18.46875 12.300781 18.96875 12.199219 C 18.839844 12.328125 18.699219 12.460938 18.570312 12.601562 L 16.511719 14.828125 C 16.351562 14.988281 15.988281 15.429688 16.230469 15.96875 C 16.320312 16.191406 16.511719 16.398438 16.769531 16.570312 C 17.261719 16.898438 18.140625 17.128906 18.960938 17.128906 C 19.269531 17.128906 19.558594 17.101562 19.828125 17.039062 C 20.699219 16.851562 21.601562 16.121094 22.558594 15.359375 C 23.328125 14.75 24.421875 13.980469 25.25 13.75 C 25.480469 13.691406 25.769531 13.648438 26 13.648438 C 26.070312 13.648438 26.128906 13.648438 26.191406 13.660156 C 26.738281 13.730469 27.269531 13.921875 28.21875 14.628906 C 29.910156 15.898438 37.421875 22.460938 37.488281 22.53125 C 37.488281 22.53125 37.96875 22.949219 37.941406 23.628906 C 37.921875 24.011719 37.710938 24.351562 37.339844 24.589844 C 37.019531 24.789062 36.691406 24.898438 36.359375 24.898438 C 35.859375 24.898438 35.511719 24.660156 35.488281 24.648438 C 35.460938 24.628906 32.890625 22.269531 31.949219 21.480469 C 31.800781 21.359375 31.648438 21.238281 31.511719 21.238281 C 31.429688 21.238281 31.359375 21.269531 31.308594 21.328125 C 31.160156 21.511719 31.328125 21.769531 31.519531 21.929688 L 34.519531 24.949219 C 34.519531 24.949219 34.890625 25.300781 34.929688 25.761719 C 34.949219 26.261719 34.710938 26.679688 34.21875 27 C 33.871094 27.230469 33.511719 27.351562 33.160156 27.351562 C 32.699219 27.351562 32.378906 27.140625 32.300781 27.089844 L 31.871094 26.671875 C 31.078125 25.898438 30.269531 25.089844 29.679688 24.601562 C 29.539062 24.480469 29.378906 24.371094 29.230469 24.371094 C 29.160156 24.371094 29.089844 24.398438 29.039062 24.449219 C 28.96875 24.53125 28.921875 24.660156 29.089844 24.890625 C 29.160156 24.980469 29.238281 25.058594 29.238281 25.058594 L 31.429688 27.519531 C 31.449219 27.539062 31.878906 28.058594 31.480469 28.570312 L 31.398438 28.671875 C 31.328125 28.738281 31.261719 28.808594 31.199219 28.871094 C 30.828125 29.179688 30.328125 29.210938 30.128906 29.210938 C 30.019531 29.210938 29.921875 29.199219 29.828125 29.179688 C 29.609375 29.140625 29.46875 29.078125 29.398438 29 L 29.371094 28.96875 C 29.25 28.851562 28.148438 27.71875 27.230469 26.960938 C 27.109375 26.859375 26.960938 26.730469 26.800781 26.730469 C 26.71875 26.730469 26.660156 26.761719 26.601562 26.820312 C 26.421875 27.019531 26.691406 27.308594 26.808594 27.421875 L 28.679688 29.480469 C 28.679688 29.5 28.648438 29.539062 28.609375 29.609375 C 28.539062 29.699219 28.320312 29.929688 27.640625 30.011719 C 27.558594 30.019531 27.46875 30.03125 27.390625 30.03125 C 26.691406 30.03125 25.949219 29.691406 25.558594 29.488281 C 25.730469 29.121094 25.828125 28.710938 25.828125 28.308594 C 25.828125 26.769531 24.578125 25.519531 23.039062 25.519531 C 23.011719 25.519531 22.96875 25.519531 22.941406 25.519531 C 22.988281 24.820312 22.890625 23.488281 21.53125 22.898438 C 21.140625 22.730469 20.75 22.640625 20.359375 22.640625 C 20.058594 22.640625 19.78125 22.691406 19.511719 22.789062 C 19.230469 22.238281 18.761719 21.839844 18.148438 21.628906 C 17.808594 21.511719 17.480469 21.449219 17.148438 21.449219 C 16.578125 21.449219 16.058594 21.621094 15.589844 21.949219 C 15.140625 21.390625 14.46875 21.058594 13.761719 21.058594 C 13.140625 21.058594 12.539062 21.308594 12.101562 21.75 C 11.519531 21.308594 9.210938 19.839844 3.039062 18.441406 C 2.738281 18.371094 2.050781 18.179688 1.628906 18.050781 C 1.558594 18.378906 1.511719 18.71875 1.46875 19.058594 C 1.46875 19.058594 2.609375 19.328125 2.828125 19.378906 C 9.140625 20.78125 11.21875 22.238281 11.570312 22.511719 C 11.449219 22.800781 11.390625 23.109375 11.390625 23.421875 C 11.390625 24.71875 12.449219 25.78125 13.75 25.78125 C 13.898438 25.78125 14.039062 25.769531 14.179688 25.738281 C 14.378906 26.699219 15 27.429688 15.960938 27.800781 C 16.238281 27.910156 16.519531 27.960938 16.800781 27.960938 C 16.980469 27.960938 17.160156 27.941406 17.339844 27.890625 C 17.519531 28.339844 17.921875 28.898438 18.808594 29.261719 C 19.121094 29.390625 19.429688 29.449219 19.738281 29.449219 C 19.988281 29.449219 20.230469 29.410156 20.460938 29.320312 C 20.890625 30.359375 21.898438 31.050781 23.039062 31.050781 C 23.789062 31.050781 24.511719 30.75 25.039062 30.199219 C 25.488281 30.449219 26.441406 30.898438 27.398438 30.898438 C 27.519531 30.898438 27.640625 30.890625 27.761719 30.878906 C 28.710938 30.761719 29.160156 30.390625 29.359375 30.101562 C 29.398438 30.050781 29.429688 30 29.460938 29.941406 C 29.679688 30 29.929688 30.058594 30.21875 30.058594 C 30.738281 30.058594 31.238281 29.878906 31.75 29.511719 C 32.25 29.148438 32.601562 28.640625 32.648438 28.199219 C 32.648438 28.191406 32.648438 28.191406 32.648438 28.179688 C 32.820312 28.210938 32.988281 28.230469 33.160156 28.230469 C 33.699219 28.230469 34.21875 28.058594 34.730469 27.730469 C 35.699219 27.089844 35.871094 26.261719 35.851562 25.71875 C 36.019531 25.761719 36.191406 25.769531 36.371094 25.769531 C 36.871094 25.769531 37.371094 25.621094 37.839844 25.320312 C 38.441406 24.941406 38.800781 24.351562 38.859375 23.660156 C 38.898438 23.191406 38.78125 22.71875 38.539062 22.320312 C 40.171875 21.621094 43.890625 20.261719 48.269531 19.269531 C 48.238281 18.929688 48.191406 18.589844 48.128906 18.261719 C 42.820312 19.480469 38.871094 21.191406 37.878906 21.628906 M 23.058594 30.199219 C 22.03125 30.199219 21.191406 29.398438 21.160156 28.378906 C 21.160156 28.289062 21.148438 28.058594 20.949219 28.058594 C 20.871094 28.058594 20.800781 28.109375 20.71875 28.179688 C 20.488281 28.390625 20.210938 28.601562 19.78125 28.601562 C 19.589844 28.601562 19.378906 28.558594 19.160156 28.46875 C 18.070312 28.03125 18.058594 27.28125 18.101562 26.980469 C 18.109375 26.898438 18.121094 26.820312 18.058594 26.75 L 18 26.699219 L 17.929688 26.699219 C 17.871094 26.699219 17.820312 26.71875 17.738281 26.78125 C 17.429688 27 17.121094 27.109375 16.820312 27.109375 C 16.648438 27.109375 16.480469 27.078125 16.300781 27.011719 C 14.871094 26.449219 14.980469 25.101562 15.050781 24.699219 C 15.058594 24.621094 15.039062 24.550781 14.988281 24.511719 L 14.890625 24.429688 L 14.800781 24.5 C 14.519531 24.769531 14.160156 24.921875 13.769531 24.921875 C 12.949219 24.921875 12.28125 24.25 12.28125 23.429688 C 12.28125 22.609375 12.949219 21.941406 13.769531 21.949219 C 14.511719 21.949219 15.140625 22.511719 15.238281 23.25 L 15.289062 23.648438 L 15.511719 23.308594 C 15.53125 23.269531 16.140625 22.359375 17.238281 22.359375 C 17.449219 22.359375 17.671875 22.390625 17.890625 22.460938 C 18.769531 22.730469 18.921875 23.53125 18.941406 23.859375 C 18.960938 24.050781 19.089844 24.058594 19.121094 24.058594 C 19.199219 24.058594 19.25 24.011719 19.289062 23.96875 C 19.460938 23.800781 19.820312 23.511719 20.378906 23.511719 C 20.640625 23.511719 20.910156 23.570312 21.199219 23.691406 C 22.601562 24.289062 21.960938 26.070312 21.960938 26.089844 C 21.839844 26.378906 21.828125 26.511719 21.949219 26.589844 L 22 26.621094 L 22.039062 26.621094 C 22.101562 26.621094 22.179688 26.589844 22.308594 26.550781 C 22.5 26.480469 22.789062 26.390625 23.058594 26.390625 C 24.109375 26.398438 24.96875 27.261719 24.96875 28.300781 C 24.96875 29.351562 24.109375 30.199219 23.058594 30.199219 "/>
<path style=" stroke:none;fill-rule:nonzero;fill:rgb(16.470588%,20%,45.882353%);fill-opacity:1;" d="M 132.179688 9.929688 C 131.300781 8.828125 129.96875 8.28125 128.179688 8.28125 C 126.390625 8.28125 125.058594 8.828125 124.179688 9.929688 C 123.300781 11.03125 122.859375 12.328125 122.859375 13.828125 C 122.859375 15.359375 123.300781 16.660156 124.179688 17.75 C 125.058594 18.828125 126.390625 19.378906 128.179688 19.378906 C 129.96875 19.378906 131.300781 18.839844 132.179688 17.75 C 133.058594 16.660156 133.5 15.359375 133.5 13.828125 C 133.5 12.328125 133.058594 11.03125 132.179688 9.929688 M 130 16.238281 C 129.570312 16.808594 128.960938 17.089844 128.171875 17.089844 C 127.371094 17.089844 126.761719 16.808594 126.328125 16.238281 C 125.898438 15.671875 125.691406 14.871094 125.691406 13.828125 C 125.691406 12.789062 125.898438 11.980469 126.328125 11.421875 C 126.761719 10.859375 127.371094 10.578125 128.171875 10.578125 C 128.96875 10.578125 129.578125 10.859375 130 11.421875 C 130.429688 11.980469 130.640625 12.789062 130.640625 13.828125 C 130.640625 14.871094 130.429688 15.679688 130 16.238281 "/>
<path style=" stroke:none;fill-rule:nonzero;fill:rgb(16.470588%,20%,45.882353%);fill-opacity:1;" d="M 109.71875 9 C 108.828125 8.550781 107.808594 8.320312 106.660156 8.320312 C 104.898438 8.320312 103.648438 8.78125 102.921875 9.699219 C 102.460938 10.289062 102.210938 11.039062 102.148438 11.949219 L 104.789062 11.949219 C 104.851562 11.550781 104.980469 11.230469 105.179688 10.988281 C 105.449219 10.671875 105.910156 10.511719 106.570312 10.511719 C 107.148438 10.511719 107.601562 10.589844 107.898438 10.761719 C 108.199219 10.921875 108.351562 11.21875 108.351562 11.648438 C 108.351562 12 108.148438 12.261719 107.761719 12.429688 C 107.539062 12.53125 107.179688 12.609375 106.671875 12.671875 L 105.738281 12.789062 C 104.679688 12.921875 103.871094 13.148438 103.328125 13.460938 C 102.328125 14.039062 101.828125 14.960938 101.828125 16.25 C 101.828125 17.238281 102.140625 18.011719 102.761719 18.539062 C 103.378906 19.078125 104.171875 19.308594 105.121094 19.351562 C 111.078125 19.621094 111.019531 16.210938 111.070312 15.5 L 111.070312 11.578125 C 111.058594 10.320312 110.609375 9.460938 109.71875 9 M 108.328125 14.960938 C 108.308594 15.871094 108.050781 16.5 107.550781 16.851562 C 107.050781 17.199219 106.5 17.371094 105.898438 17.371094 C 105.519531 17.371094 105.199219 17.269531 104.941406 17.058594 C 104.679688 16.851562 104.550781 16.511719 104.550781 16.050781 C 104.550781 15.53125 104.761719 15.140625 105.191406 14.890625 C 105.449219 14.738281 105.859375 14.621094 106.449219 14.519531 L 107.070312 14.398438 C 107.378906 14.339844 107.621094 14.28125 107.800781 14.210938 C 107.980469 14.140625 108.148438 14.058594 108.328125 13.949219 Z M 108.328125 14.960938 "/>
<path style=" stroke:none;fill-rule:nonzero;fill:rgb(16.470588%,20%,45.882353%);fill-opacity:1;" d="M 96.121094 10.660156 C 96.800781 10.660156 97.300781 10.871094 97.628906 11.289062 C 97.851562 11.601562 97.988281 11.949219 98.039062 12.339844 L 100.980469 12.339844 C 100.820312 10.859375 100.300781 9.820312 99.421875 9.230469 C 98.539062 8.648438 97.410156 8.351562 96.039062 8.351562 C 94.421875 8.351562 93.148438 8.851562 92.230469 9.839844 C 91.308594 10.828125 90.851562 12.21875 90.851562 14.011719 C 90.851562 15.589844 91.269531 16.878906 92.101562 17.878906 C 92.929688 18.871094 94.230469 19.371094 96 19.371094 C 97.769531 19.371094 99.101562 18.769531 100 17.578125 C 100.558594 16.839844 100.878906 16.058594 100.949219 15.230469 L 98.019531 15.230469 C 97.960938 15.78125 97.789062 16.21875 97.511719 16.570312 C 97.230469 16.910156 96.75 17.089844 96.078125 17.089844 C 95.128906 17.089844 94.480469 16.660156 94.140625 15.789062 C 93.949219 15.328125 93.859375 14.710938 93.859375 13.949219 C 93.859375 13.148438 93.960938 12.511719 94.140625 12.019531 C 94.488281 11.121094 95.148438 10.660156 96.121094 10.660156 "/>
<path style=" stroke:none;fill-rule:nonzero;fill:rgb(16.470588%,20%,45.882353%);fill-opacity:1;" d="M 90.058594 8.359375 C 84.019531 8.359375 84.378906 13.710938 84.378906 13.710938 L 84.378906 19.140625 L 87.121094 19.140625 L 87.121094 14.039062 C 87.121094 13.210938 87.230469 12.589844 87.429688 12.179688 C 87.808594 11.46875 88.539062 11.109375 89.640625 11.109375 C 89.71875 11.109375 89.828125 11.109375 89.96875 11.121094 C 90.101562 11.128906 90.25 11.140625 90.429688 11.160156 L 90.429688 8.378906 C 90.308594 8.371094 90.230469 8.371094 90.199219 8.359375 C 90.160156 8.359375 90.109375 8.359375 90.058594 8.359375 "/>
<path style=" stroke:none;fill-rule:nonzero;fill:rgb(16.470588%,20%,45.882353%);fill-opacity:1;" d="M 79.988281 16.300781 C 79.871094 16.460938 79.75 16.601562 79.609375 16.710938 C 79.21875 17.03125 78.699219 17.128906 78.078125 17.128906 C 77.488281 17.128906 77.039062 17.039062 76.621094 16.78125 C 75.941406 16.359375 75.550781 15.648438 75.511719 14.601562 L 83.101562 14.601562 C 83.109375 13.699219 83.078125 13.011719 83.011719 12.53125 C 82.878906 11.710938 82.609375 11 82.179688 10.378906 C 81.710938 9.679688 81.109375 9.160156 80.378906 8.839844 C 79.648438 8.519531 78.839844 8.351562 77.929688 8.351562 C 76.398438 8.351562 75.160156 8.828125 74.210938 9.789062 C 73.25 10.75 72.769531 12.140625 72.769531 13.941406 C 72.769531 15.871094 73.300781 17.261719 74.359375 18.109375 C 75.421875 18.960938 76.640625 19.390625 78.03125 19.390625 C 79.710938 19.390625 81.019531 18.878906 81.949219 17.871094 C 82.449219 17.339844 82.769531 16.808594 82.898438 16.289062 L 79.988281 16.289062 Z M 76.308594 11.199219 C 76.699219 10.800781 77.238281 10.609375 77.941406 10.609375 C 78.578125 10.609375 79.121094 10.800781 79.558594 11.171875 C 79.988281 11.539062 80.238281 12.089844 80.28125 12.808594 L 75.589844 12.808594 C 75.679688 12.128906 75.921875 11.589844 76.308594 11.199219 "/>
<path style=" stroke:none;fill-rule:nonzero;fill:rgb(16.470588%,20%,45.882353%);fill-opacity:1;" d="M 71.671875 19.140625 L 69.171875 19.140625 L 69.171875 12.828125 C 69.171875 12.25 68.980469 10.878906 67.328125 10.878906 C 66.230469 10.878906 65.429688 11.671875 65.429688 12.828125 L 65.429688 19.140625 L 62.921875 19.140625 L 62.921875 12.828125 C 62.921875 12.25 62.75 10.878906 61.101562 10.878906 C 59.980469 10.878906 59.199219 11.671875 59.199219 12.828125 L 59.199219 19.140625 L 56.691406 19.140625 L 56.691406 12.890625 C 56.691406 10.289062 58.421875 8.320312 61.089844 8.320312 C 62.421875 8.320312 63.5 8.878906 64.199219 9.769531 C 64.941406 8.878906 66.039062 8.320312 67.308594 8.320312 C 70.039062 8.320312 71.660156 10.210938 71.660156 12.890625 L 71.660156 19.140625 Z M 71.671875 19.140625 "/>
<path style=" stroke:none;fill-rule:nonzero;fill:rgb(16.470588%,20%,45.882353%);fill-opacity:1;" d="M 122.039062 5.070312 C 122.039062 5.070312 119.28125 4.78125 119.28125 6.988281 L 119.28125 9.929688 C 118.96875 9.441406 118.578125 9.058594 118.089844 8.78125 C 117.601562 8.5 117.039062 8.359375 116.410156 8.359375 C 115.039062 8.359375 113.949219 8.871094 113.128906 9.890625 C 112.308594 10.910156 111.898438 12.378906 111.898438 14.160156 C 111.898438 15.699219 112.320312 16.96875 113.148438 17.949219 C 113.980469 18.929688 115.609375 19.359375 117.058594 19.359375 C 122.109375 19.359375 122.050781 15.03125 122.050781 15.03125 Z M 118.75 16.269531 C 118.351562 16.839844 117.761719 17.128906 116.988281 17.128906 C 116.21875 17.128906 115.640625 16.839844 115.269531 16.261719 C 114.890625 15.679688 114.699219 14.839844 114.699219 13.878906 C 114.699219 12.988281 114.890625 12.238281 115.261719 11.640625 C 115.628906 11.039062 116.21875 10.738281 117.011719 10.738281 C 117.53125 10.738281 117.988281 10.910156 118.390625 11.238281 C 119.03125 11.789062 119.351562 12.769531 119.351562 14.039062 C 119.359375 14.949219 119.148438 15.691406 118.75 16.269531 "/>
<path style=" stroke:none;fill-rule:nonzero;fill:rgb(16.470588%,20%,45.882353%);fill-opacity:1;" d="M 90.621094 32.238281 C 90.511719 32.398438 90.378906 32.539062 90.25 32.648438 C 89.859375 32.96875 89.320312 33.078125 88.710938 33.078125 C 88.128906 33.078125 87.679688 32.988281 87.261719 32.730469 C 86.578125 32.308594 86.21875 31.589844 86.179688 30.550781 L 93.699219 30.550781 C 93.710938 29.660156 93.679688 28.980469 93.609375 28.5 C 93.480469 27.691406 93.210938 26.980469 92.789062 26.359375 C 92.320312 25.660156 91.71875 25.160156 91.011719 24.828125 C 90.289062 24.511719 89.480469 24.351562 88.578125 24.351562 C 87.070312 24.351562 85.839844 24.828125 84.890625 25.78125 C 83.941406 26.738281 83.46875 28.109375 83.46875 29.890625 C 83.46875 31.800781 83.988281 33.179688 85.050781 34.019531 C 86.101562 34.871094 87.308594 35.289062 88.691406 35.289062 C 90.351562 35.289062 91.648438 34.789062 92.570312 33.78125 C 93.070312 33.25 93.378906 32.730469 93.511719 32.210938 L 90.621094 32.210938 Z M 86.96875 27.179688 C 87.351562 26.789062 87.890625 26.589844 88.578125 26.589844 C 89.21875 26.589844 89.75 26.78125 90.179688 27.148438 C 90.609375 27.519531 90.851562 28.058594 90.898438 28.78125 L 86.25 28.78125 C 86.351562 28.109375 86.589844 27.578125 86.96875 27.179688 "/>
<path style=" stroke:none;fill-rule:nonzero;fill:rgb(16.470588%,20%,45.882353%);fill-opacity:1;" d="M 71.78125 24.390625 C 71.148438 24.390625 70.589844 24.53125 70.101562 24.800781 C 69.609375 25.078125 69.210938 25.460938 68.910156 25.949219 L 68.910156 21.019531 C 68.910156 21.019531 66.148438 20.75 66.148438 22.988281 L 66.148438 30.980469 C 66.148438 30.980469 66.089844 35.308594 71.140625 35.308594 C 72.589844 35.308594 74.21875 34.878906 75.050781 33.890625 C 75.878906 32.910156 76.300781 31.640625 76.300781 30.101562 C 76.300781 28.320312 75.890625 26.929688 75.070312 25.910156 C 74.238281 24.898438 73.148438 24.390625 71.78125 24.390625 M 72.910156 32.21875 C 72.53125 32.800781 71.960938 33.078125 71.191406 33.078125 C 70.421875 33.078125 69.828125 32.800781 69.429688 32.21875 C 69.03125 31.648438 68.828125 30.910156 68.828125 29.988281 C 68.828125 28.71875 69.148438 27.808594 69.789062 27.261719 C 70.191406 26.929688 70.640625 26.761719 71.171875 26.761719 C 71.96875 26.761719 72.550781 27.058594 72.921875 27.660156 C 73.289062 28.261719 73.480469 29.011719 73.480469 29.898438 C 73.480469 30.871094 73.289062 31.640625 72.910156 32.21875 "/>
<path style=" stroke:none;fill-rule:nonzero;fill:rgb(16.470588%,20%,45.882353%);fill-opacity:1;" d="M 82.941406 24.378906 C 82.898438 24.378906 82.859375 24.378906 82.808594 24.378906 C 76.769531 24.378906 77.121094 29.730469 77.121094 29.730469 L 77.121094 35.078125 L 79.859375 35.078125 L 79.859375 30.070312 C 79.859375 29.230469 79.960938 28.621094 80.179688 28.21875 C 80.550781 27.511719 81.289062 27.148438 82.390625 27.148438 C 82.46875 27.148438 82.578125 27.148438 82.710938 27.160156 C 82.839844 27.171875 83 27.179688 83.171875 27.199219 L 83.171875 24.410156 C 83.058594 24.378906 82.980469 24.378906 82.941406 24.378906 "/>
<path style=" stroke:none;fill-rule:nonzero;fill:rgb(16.470588%,20%,45.882353%);fill-opacity:1;" d="M 56.691406 22.988281 L 56.691406 35.058594 L 59.261719 35.058594 L 59.261719 21.019531 C 59.269531 21.019531 56.691406 20.910156 56.691406 22.988281 "/>
<path style=" stroke:none;fill-rule:nonzero;fill:rgb(16.470588%,20%,45.882353%);fill-opacity:1;" d="M 61.371094 21 L 64.121094 21 L 64.121094 23.730469 L 61.371094 23.730469 Z M 61.371094 21 "/>
<path style=" stroke:none;fill-rule:nonzero;fill:rgb(16.470588%,20%,45.882353%);fill-opacity:1;" d="M 61.371094 24.660156 L 64.128906 24.660156 L 64.128906 35.070312 L 61.371094 35.070312 Z M 61.371094 24.660156 "/>
</g>
</svg>
